<svg width="120" height="40" viewBox="0 0 120 40" fill="none" xmlns="http://www.w3.org/2000/svg">
<path d="M110.135 7.92969e-06H9.53468C9.16798 7.92969e-06 8.80568 7.92975e-06 8.43995 0.00200793C8.1338 0.00400793 7.83009 0.00981793 7.521 0.0147079C6.84951 0.0226097 6.17961 0.0816842 5.5171 0.191418C4.85552 0.303541 4.21467 0.514924 3.61622 0.818418C3.0185 1.12448 2.47235 1.52218 1.99757 1.99708C1.5203 2.47064 1.12246 3.01802 0.81935 3.61817C0.5154 4.21712 0.304641 4.85895 0.19435 5.52149C0.0830109 6.18319 0.0230984 6.85253 0.01515 7.52349C0.00587 7.83009 0.00489 8.13771 0 8.44435V31.5586C0.00489 31.8691 0.00587 32.1699 0.01515 32.4805C0.0231008 33.1514 0.0830134 33.8207 0.19435 34.4824C0.304336 35.1453 0.515108 35.7875 0.81935 36.3867C1.12233 36.9849 1.52022 37.5301 1.99757 38.001C2.47054 38.478 3.01705 38.876 3.61622 39.1797C4.21467 39.484 4.85545 39.6967 5.5171 39.8105C6.17972 39.9194 6.84956 39.9785 7.521 39.9873C7.83009 39.9941 8.1338 39.998 8.43995 39.998C8.80567 40 9.168 40 9.53468 40H110.135C110.494 40 110.859 40 111.219 39.998C111.523 39.998 111.836 39.9941 112.141 39.9873C112.811 39.9789 113.479 39.9198 114.141 39.8105C114.804 39.6959 115.448 39.4833 116.049 39.1797C116.647 38.8758 117.193 38.4779 117.666 38.001C118.142 37.5282 118.541 36.9835 118.848 36.3867C119.15 35.7871 119.358 35.145 119.467 34.4824C119.578 33.8206 119.64 33.1515 119.652 32.4805C119.656 32.1699 119.656 31.8691 119.656 31.5586C119.664 31.1953 119.664 30.834 119.664 30.4648V9.53614C119.664 9.16993 119.664 8.80665 119.656 8.44435C119.656 8.13771 119.656 7.83009 119.652 7.52345C119.64 6.85243 119.578 6.18324 119.467 5.52145C119.358 4.85929 119.149 4.21751 118.848 3.61813C118.23 2.4152 117.252 1.43603 116.049 0.818328C115.448 0.515575 114.804 0.304248 114.141 0.191328C113.48 0.0811107 112.811 0.0220157 112.141 0.0145679C111.836 0.00968793 111.523 0.00382793 111.219 0.00187793C110.859 -0.00012207 110.494 -0.00012207 110.135 -0.00012207V7.92969e-06Z" fill="black"/>
<path d="M8.44483 39.125C8.14015 39.125 7.84283 39.1211 7.54054 39.1143C6.91432 39.1061 6.28957 39.0516 5.6714 38.9512C5.09499 38.8519 4.5366 38.6673 4.01466 38.4033C3.4975 38.1415 3.02581 37.7983 2.61766 37.3867C2.2036 36.98 1.85888 36.5082 1.59715 35.9902C1.33254 35.4688 1.14941 34.9099 1.05415 34.333C0.951273 33.7131 0.895613 33.0863 0.887649 32.458C0.881309 32.2471 0.873009 31.5449 0.873009 31.5449V8.44434C0.873009 8.44434 0.881849 7.75293 0.887699 7.5498C0.895325 6.92248 0.950661 6.29665 1.05323 5.67773C1.14867 5.09925 1.33194 4.53875 1.59669 4.01563C1.85745 3.49794 2.20026 3.02586 2.61183 2.61768C3.02293 2.20562 3.49613 1.8606 4.01417 1.59521C4.53491 1.33209 5.09224 1.14873 5.66749 1.05127C6.28769 0.949836 6.91461 0.894996 7.543 0.88721L8.44532 0.875H111.214L112.127 0.8877C112.75 0.895099 113.371 0.94945 113.985 1.05029C114.566 1.14898 115.13 1.33362 115.656 1.59814C116.694 2.13299 117.539 2.97916 118.071 4.01807C118.332 4.53758 118.512 5.09351 118.606 5.66699C118.71 6.29099 118.768 6.92174 118.78 7.5542C118.783 7.8374 118.783 8.1416 118.783 8.44434C118.791 8.81934 118.791 9.17627 118.791 9.53613V30.4648C118.791 30.8281 118.791 31.1826 118.783 31.54C118.783 31.8652 118.783 32.1631 118.779 32.4697C118.768 33.0909 118.71 33.7104 118.608 34.3232C118.515 34.9043 118.333 35.4675 118.068 35.9932C117.805 36.5056 117.462 36.9733 117.053 37.3789C116.644 37.7927 116.172 38.1379 115.653 38.4014C115.128 38.6674 114.566 38.8527 113.985 38.9512C113.367 39.0522 112.742 39.1067 112.116 39.1143C111.823 39.1211 111.517 39.125 111.219 39.125L110.135 39.127L8.44483 39.125Z" fill="white"/>
<path d="M24.9967 19.889C25.0079 19.021 25.2384 18.17 25.6669 17.4151C26.0954 16.6601 26.7078 16.0259 27.4473 15.5712C26.9775 14.9003 26.3578 14.3482 25.6373 13.9587C24.9169 13.5692 24.1155 13.3531 23.2969 13.3275C21.5507 13.1442 19.8578 14.3724 18.9679 14.3724C18.0608 14.3724 16.6908 13.3457 15.2154 13.376C14.2611 13.4069 13.3311 13.6844 12.516 14.1815C11.7008 14.6786 11.0283 15.3784 10.5641 16.2127C8.55295 19.6947 10.0531 24.8121 11.9796 27.6267C12.9435 29.005 14.0699 30.5445 15.544 30.4899C16.9864 30.4301 17.5251 29.5701 19.2662 29.5701C20.9911 29.5701 21.4965 30.4899 23.0004 30.4552C24.5482 30.4301 25.5233 29.0708 26.4534 27.6795C27.146 26.6975 27.6789 25.6121 28.0324 24.4637C27.1332 24.0833 26.3659 23.4467 25.826 22.6332C25.2862 21.8197 24.9978 20.8653 24.9967 19.889Z" fill="black"/>
<path d="M22.1561 11.4768C23 10.4637 23.4158 9.1616 23.3151 7.84692C22.0258 7.98234 20.8349 8.59854 19.9796 9.57274C19.5614 10.0487 19.2411 10.6023 19.037 11.2021C18.8329 11.8019 18.7491 12.436 18.7902 13.0682C19.4351 13.0749 20.0731 12.9351 20.6561 12.6594C21.2391 12.3838 21.752 11.9794 22.1561 11.4768Z" fill="black"/>
<path d="M42.3018 27.1399H37.5684L36.4317 30.4964H34.4268L38.9102 18.0784H40.9932L45.4766 30.4964H43.4375L42.3018 27.1399ZM38.0586 25.5911H41.8106L39.961 20.1438H39.9092L38.0586 25.5911Z" fill="black"/>
<path d="M55.1592 25.9697C55.1592 28.7832 53.6534 30.5908 51.3809 30.5908C50.8052 30.6209 50.2327 30.4883 49.729 30.2082C49.2252 29.928 48.8104 29.5117 48.5323 29.0068H48.4893V33.4912H46.6309V21.4423H48.4297V22.9482H48.4639C48.7548 22.4457 49.1766 22.0316 49.6842 21.7497C50.1918 21.4679 50.7664 21.3289 51.3467 21.3476C53.6446 21.3476 55.1592 23.164 55.1592 25.9697ZM53.2491 25.9697C53.2491 24.1367 52.3018 22.9316 50.8565 22.9316C49.4366 22.9316 48.4815 24.1621 48.4815 25.9697C48.4815 27.7939 49.4366 29.0156 50.8565 29.0156C52.3018 29.0156 53.249 27.8193 53.249 25.9697H53.2491Z" fill="black"/>
<path d="M65.1246 25.9697C65.1246 28.7832 63.6182 30.5908 61.3457 30.5908C60.7701 30.6209 60.1976 30.4883 59.6938 30.2082C59.19 29.928 58.7753 29.5117 58.4971 29.0068H58.4541V33.4912H56.5957V21.4423H58.3945V22.9482H58.4287C58.7197 22.4457 59.1414 22.0316 59.649 21.7497C60.1567 21.4679 60.7312 21.3289 61.3115 21.3476C63.6094 21.3476 65.1246 23.164 65.1246 25.9697ZM63.2139 25.9697C63.2139 24.1367 62.2666 22.9316 60.8213 22.9316C59.4014 22.9316 58.4463 24.1621 58.4463 25.9697C58.4463 27.7939 59.4014 29.0156 60.8213 29.0156C62.2666 29.0156 63.2139 27.8193 63.2139 25.9697Z" fill="black"/>
<path d="M71.7095 27.0364C71.8472 28.2679 73.0435 29.0764 74.6783 29.0764C76.2447 29.0764 77.3716 28.2678 77.3716 27.1575C77.3716 26.1936 76.6919 25.6165 75.0826 25.221L73.4732 24.8333C71.1929 24.2825 70.1343 23.2161 70.1343 21.4856C70.1343 19.343 72.0015 17.8713 74.6519 17.8713C77.2769 17.8713 79.0757 19.343 79.1363 21.4856H77.2603C77.148 20.2463 76.1236 19.4983 74.6265 19.4983C73.1294 19.4983 72.105 20.2551 72.105 21.3567C72.105 22.2346 72.7593 22.7512 74.3599 23.1467L75.7281 23.4826C78.2759 24.0852 79.3335 25.1086 79.3335 26.925C79.3335 29.2483 77.4839 30.7033 74.5405 30.7033C71.7866 30.7033 69.9272 29.2824 69.8071 27.0363L71.7095 27.0364Z" fill="black"/>
<path d="M83.3462 19.3V21.4426H85.0679V22.9143H83.3462V27.9055C83.3462 28.6809 83.691 29.0422 84.4478 29.0422C84.6522 29.0387 84.8562 29.0243 85.0591 28.9992V30.4621C84.7188 30.5257 84.373 30.5545 84.0269 30.5481C82.1939 30.5481 81.479 29.8596 81.479 28.1037V22.9143H80.1626V21.4426H81.479V19.3H83.3462Z" fill="black"/>
<path d="M86.064 25.97C86.064 23.1213 87.7418 21.3313 90.358 21.3313C92.983 21.3313 94.6529 23.1213 94.6529 25.97C94.6529 28.8264 92.9918 30.6086 90.358 30.6086C87.7251 30.6086 86.064 28.8264 86.064 25.97ZM92.7593 25.97C92.7593 24.0159 91.8638 22.8625 90.358 22.8625C88.8521 22.8625 87.9566 24.0247 87.9566 25.97C87.9566 27.9319 88.8521 29.0764 90.358 29.0764C91.8638 29.0764 92.7593 27.9319 92.7593 25.97H92.7593Z" fill="black"/>
<path d="M96.1851 21.4423H97.9576V22.9833H98.0006C98.1205 22.502 98.4024 22.0766 98.799 21.7788C99.1956 21.4809 99.6827 21.3286 100.178 21.3475C100.392 21.3468 100.606 21.37 100.815 21.4169V23.1551C100.545 23.0725 100.263 23.0346 99.98 23.0428C99.71 23.0319 99.4409 23.0795 99.1911 23.1824C98.9412 23.2853 98.7166 23.441 98.5326 23.6389C98.3486 23.8368 98.2097 24.0721 98.1252 24.3288C98.0408 24.5855 98.0129 24.8574 98.0435 25.1258V30.496H96.1851L96.1851 21.4423Z" fill="black"/>
<path d="M109.383 27.8372C109.133 29.4807 107.533 30.6086 105.485 30.6086C102.851 30.6086 101.216 28.844 101.216 26.0129C101.216 23.1731 102.86 21.3313 105.407 21.3313C107.912 21.3313 109.487 23.052 109.487 25.7971V26.4338H103.092V26.5461C103.063 26.8793 103.105 27.215 103.215 27.5308C103.325 27.8467 103.501 28.1355 103.731 28.378C103.962 28.6206 104.241 28.8113 104.551 28.9376C104.861 29.0639 105.194 29.1229 105.528 29.1106C105.967 29.1517 106.408 29.05 106.784 28.8206C107.161 28.5911 107.454 28.2462 107.619 27.8371L109.383 27.8372ZM103.101 25.135H107.627C107.644 24.8354 107.599 24.5356 107.494 24.2544C107.389 23.9732 107.228 23.7166 107.019 23.5009C106.811 23.2851 106.56 23.1148 106.282 23.0006C106.005 22.8863 105.707 22.8307 105.407 22.8372C105.104 22.8354 104.804 22.8935 104.524 23.0082C104.244 23.123 103.99 23.292 103.775 23.5057C103.561 23.7193 103.391 23.9733 103.275 24.2529C103.16 24.5326 103.1 24.8324 103.101 25.135V25.135Z" fill="black"/>
<path d="M37.8262 8.73053C38.2158 8.70257 38.6067 8.76143 38.9709 8.90286C39.335 9.04429 39.6632 9.26477 39.9317 9.5484C40.2003 9.83202 40.4026 10.1717 40.524 10.543C40.6454 10.9143 40.6829 11.3079 40.6338 11.6954C40.6338 13.6016 39.6035 14.6974 37.8262 14.6974H35.6709V8.73053H37.8262ZM36.5976 13.8535H37.7226C38.0011 13.8702 38.2797 13.8245 38.5382 13.7199C38.7967 13.6153 39.0287 13.4543 39.2172 13.2488C39.4057 13.0432 39.546 12.7982 39.6278 12.5316C39.7097 12.265 39.7311 11.9834 39.6904 11.7075C39.7281 11.4327 39.7046 11.1529 39.6215 10.8883C39.5383 10.6236 39.3977 10.3806 39.2096 10.1767C39.0216 9.97273 38.7907 9.81292 38.5337 9.70868C38.2766 9.60445 37.9996 9.55836 37.7226 9.57374H36.5976V13.8535Z" fill="black"/>
<path d="M41.6807 12.4439C41.6523 12.148 41.6862 11.8494 41.78 11.5674C41.8739 11.2853 42.0256 11.026 42.2256 10.806C42.4255 10.586 42.6692 10.4102 42.9411 10.2899C43.2129 10.1697 43.5069 10.1075 43.8042 10.1075C44.1015 10.1075 44.3954 10.1697 44.6673 10.2899C44.9391 10.4102 45.1829 10.586 45.3828 10.806C45.5827 11.026 45.7345 11.2853 45.8283 11.5674C45.9222 11.8494 45.956 12.148 45.9277 12.4439C45.9566 12.7401 45.9231 13.0391 45.8295 13.3217C45.7359 13.6042 45.5843 13.864 45.3843 14.0844C45.1843 14.3048 44.9404 14.481 44.6683 14.6015C44.3961 14.722 44.1018 14.7843 43.8042 14.7843C43.5066 14.7843 43.2122 14.722 42.9401 14.6015C42.668 14.481 42.4241 14.3048 42.2241 14.0844C42.0241 13.864 41.8724 13.6042 41.7788 13.3217C41.6853 13.0391 41.6518 12.7401 41.6807 12.4439ZM45.0137 12.4439C45.0137 11.4679 44.5752 10.8971 43.8057 10.8971C43.0332 10.8971 42.5987 11.4679 42.5987 12.4439C42.5987 13.4278 43.0332 13.9942 43.8057 13.9942C44.5752 13.9942 45.0137 13.4239 45.0137 12.4439H45.0137Z" fill="black"/>
<path d="M51.5732 14.6973H50.6514L49.7207 11.3809H49.6504L48.7236 14.6973H47.8105L46.5693 10.1943H47.4707L48.2773 13.6303H48.3438L49.2695 10.1943H50.1221L51.0479 13.6303H51.1182L51.9209 10.1943H52.8096L51.5732 14.6973Z" fill="black"/>
<path d="M53.8535 10.1939H54.709V10.9092H54.7754C54.888 10.6523 55.0781 10.4369 55.3189 10.2931C55.5598 10.1493 55.8395 10.0842 56.1191 10.107C56.3382 10.0905 56.5582 10.1235 56.7628 10.2036C56.9674 10.2837 57.1514 10.4088 57.3011 10.5697C57.4508 10.7305 57.5623 10.923 57.6275 11.1328C57.6927 11.3426 57.7099 11.5644 57.6777 11.7818V14.6968H56.7891V12.0049C56.7891 11.2813 56.4746 10.9214 55.8174 10.9214C55.6686 10.9145 55.5201 10.9398 55.3821 10.9957C55.244 11.0515 55.1197 11.1365 55.0175 11.2449C54.9154 11.3533 54.8379 11.4825 54.7904 11.6236C54.7429 11.7647 54.7264 11.9145 54.7422 12.0625V14.6968H53.8535L53.8535 10.1939Z" fill="black"/>
<path d="M59.0938 8.43652H59.9824V14.6973H59.0938V8.43652Z" fill="black"/>
<path d="M61.2178 12.4439C61.1895 12.1479 61.2234 11.8494 61.3172 11.5673C61.4111 11.2852 61.5629 11.0259 61.7628 10.8059C61.9628 10.5859 62.2065 10.4101 62.4784 10.2898C62.7503 10.1696 63.0443 10.1074 63.3416 10.1074C63.6388 10.1074 63.9328 10.1696 64.2047 10.2898C64.4766 10.4101 64.7203 10.5859 64.9203 10.8059C65.1202 11.0259 65.272 11.2852 65.3659 11.5673C65.4597 11.8494 65.4936 12.1479 65.4653 12.4439C65.4941 12.7401 65.4607 13.0391 65.367 13.3216C65.2734 13.6042 65.1217 13.864 64.9217 14.0844C64.7217 14.3048 64.4778 14.4809 64.2057 14.6014C63.9335 14.722 63.6392 14.7842 63.3416 14.7842C63.0439 14.7842 62.7496 14.722 62.4774 14.6014C62.2053 14.4809 61.9614 14.3048 61.7614 14.0844C61.5614 13.864 61.4097 13.6042 61.3161 13.3216C61.2224 13.0391 61.189 12.7401 61.2178 12.4439ZM64.5508 12.4439C64.5508 11.4678 64.1123 10.897 63.3428 10.897C62.5703 10.897 62.1358 11.4678 62.1358 12.4439C62.1358 13.4278 62.5703 13.9942 63.3428 13.9942C64.1123 13.9942 64.5508 13.4239 64.5508 12.4439H64.5508Z" fill="black"/>
<path d="M66.4009 13.4238C66.4009 12.6133 67.0044 12.146 68.0757 12.0796L69.2954 12.0093V11.6206C69.2954 11.145 68.981 10.8765 68.3735 10.8765C67.8774 10.8765 67.5337 11.0586 67.4351 11.377H66.5747C66.6655 10.6035 67.3931 10.1074 68.4146 10.1074C69.5435 10.1074 70.1802 10.6694 70.1802 11.6206V14.6973H69.3247V14.0645H69.2544C69.1117 14.2914 68.9113 14.4765 68.6737 14.6007C68.436 14.7249 68.1697 14.7838 67.9019 14.7715C67.7128 14.7911 67.5218 14.7709 67.341 14.7122C67.1602 14.6536 66.9938 14.5576 66.8524 14.4307C66.711 14.3037 66.5977 14.1485 66.52 13.9751C66.4422 13.8017 66.4016 13.6139 66.4009 13.4238ZM69.2954 13.0391V12.6626L68.1958 12.7329C67.5757 12.7744 67.2944 12.9853 67.2944 13.3823C67.2944 13.7876 67.646 14.0234 68.1294 14.0234C68.2711 14.0378 68.4142 14.0235 68.5502 13.9814C68.6862 13.9393 68.8123 13.8703 68.9211 13.7784C69.0299 13.6866 69.1191 13.5738 69.1834 13.4468C69.2477 13.3198 69.2858 13.1811 69.2954 13.0391Z" fill="black"/>
<path d="M71.3481 12.4439C71.3481 11.021 72.0796 10.1196 73.2173 10.1196C73.4987 10.1067 73.778 10.1741 74.0225 10.314C74.267 10.4539 74.4667 10.6605 74.5981 10.9096H74.6646V8.43652H75.5532V14.6973H74.7017V13.9858H74.6313C74.4897 14.2333 74.2831 14.4374 74.0339 14.5758C73.7846 14.7143 73.5022 14.782 73.2173 14.7715C72.0718 14.7715 71.3481 13.8701 71.3481 12.4439ZM72.2661 12.4439C72.2661 13.3989 72.7163 13.9737 73.4693 13.9737C74.2183 13.9737 74.6812 13.3907 74.6812 12.4478C74.6812 11.5093 74.2134 10.918 73.4693 10.918C72.7212 10.918 72.2661 11.4966 72.2661 12.4439H72.2661Z" fill="black"/>
<path d="M79.23 12.4439C79.2017 12.148 79.2355 11.8494 79.3294 11.5674C79.4232 11.2853 79.575 11.026 79.7749 10.806C79.9748 10.586 80.2186 10.4102 80.4904 10.2899C80.7623 10.1697 81.0563 10.1075 81.3535 10.1075C81.6508 10.1075 81.9448 10.1697 82.2166 10.2899C82.4885 10.4102 82.7322 10.586 82.9321 10.806C83.1321 11.026 83.2838 11.2853 83.3777 11.5674C83.4715 11.8494 83.5054 12.148 83.4771 12.4439C83.5059 12.7401 83.4725 13.0391 83.3789 13.3217C83.2853 13.6042 83.1336 13.864 82.9336 14.0844C82.7336 14.3048 82.4897 14.481 82.2176 14.6015C81.9455 14.722 81.6511 14.7843 81.3535 14.7843C81.0559 14.7843 80.7616 14.722 80.4894 14.6015C80.2173 14.481 79.9734 14.3048 79.7734 14.0844C79.5734 13.864 79.4218 13.6042 79.3282 13.3217C79.2346 13.0391 79.2011 12.7401 79.23 12.4439ZM82.563 12.4439C82.563 11.4679 82.1245 10.8971 81.355 10.8971C80.5825 10.8971 80.148 11.4679 80.148 12.4439C80.148 13.4278 80.5826 13.9942 81.355 13.9942C82.1245 13.9942 82.563 13.4239 82.563 12.4439Z" fill="black"/>
<path d="M84.6694 10.1939H85.5249V10.9092H85.5913C85.704 10.6523 85.894 10.4369 86.1348 10.2931C86.3757 10.1493 86.6555 10.0842 86.9351 10.107C87.1542 10.0905 87.3742 10.1235 87.5788 10.2036C87.7834 10.2837 87.9673 10.4088 88.117 10.5697C88.2667 10.7305 88.3783 10.923 88.4435 11.1328C88.5087 11.3426 88.5258 11.5644 88.4937 11.7818V14.6968H87.605V12.0049C87.605 11.2813 87.2905 10.9214 86.6333 10.9214C86.4846 10.9145 86.336 10.9398 86.198 10.9957C86.0599 11.0515 85.9356 11.1365 85.8335 11.2449C85.7313 11.3533 85.6539 11.4825 85.6063 11.6236C85.5588 11.7647 85.5423 11.9145 85.5581 12.0625V14.6968H84.6694V10.1939Z" fill="black"/>
<path d="M93.5151 9.07324V10.2148H94.4907V10.9634H93.5151V13.2788C93.5151 13.7505 93.7095 13.957 94.1519 13.957C94.2651 13.9567 94.3783 13.9498 94.4907 13.9365V14.6768C94.3311 14.7053 94.1694 14.7205 94.0073 14.7222C93.019 14.7222 92.6255 14.3745 92.6255 13.5063V10.9633H91.9106V10.2148H92.6255V9.07324H93.5151Z" fill="black"/>
<path d="M95.7046 8.43652H96.5854V10.918H96.6558C96.7739 10.6587 96.9691 10.4421 97.2148 10.2977C97.4605 10.1534 97.7447 10.0883 98.0288 10.1113C98.2467 10.0995 98.4646 10.1359 98.6669 10.2179C98.8692 10.2999 99.0508 10.4256 99.199 10.586C99.3471 10.7463 99.458 10.9373 99.5238 11.1455C99.5896 11.3536 99.6086 11.5737 99.5795 11.79V14.6973H98.69V12.0093C98.69 11.29 98.355 10.9258 97.7271 10.9258C97.5743 10.9132 97.4207 10.9342 97.2769 10.9873C97.1332 11.0404 97.0027 11.1242 96.8947 11.2329C96.7867 11.3417 96.7038 11.4727 96.6517 11.6168C96.5997 11.761 96.5797 11.9147 96.5933 12.0674V14.6973H95.7046L95.7046 8.43652Z" fill="black"/>
<path d="M104.761 13.4814C104.641 13.8929 104.379 14.2489 104.022 14.4871C103.666 14.7252 103.236 14.8304 102.81 14.7841C102.513 14.792 102.219 14.7351 101.946 14.6176C101.674 14.5001 101.43 14.3247 101.232 14.1035C101.034 13.8824 100.887 13.6208 100.8 13.337C100.713 13.0532 100.689 12.7539 100.73 12.4599C100.69 12.165 100.715 11.8651 100.801 11.5804C100.888 11.2958 101.034 11.033 101.231 10.8099C101.428 10.5868 101.671 10.4087 101.942 10.2875C102.214 10.1663 102.509 10.1048 102.806 10.1074C104.059 10.1074 104.815 10.9634 104.815 12.3774V12.6875H101.635V12.7373C101.621 12.9025 101.642 13.0688 101.696 13.2256C101.75 13.3823 101.837 13.5261 101.95 13.6475C102.062 13.769 102.2 13.8655 102.352 13.9309C102.504 13.9963 102.669 14.0291 102.834 14.0273C103.047 14.0528 103.262 14.0145 103.453 13.9173C103.644 13.8201 103.801 13.6683 103.906 13.4814L104.761 13.4814ZM101.635 12.0302H103.91C103.921 11.8791 103.9 11.7273 103.849 11.5846C103.798 11.4419 103.718 11.3114 103.614 11.2015C103.509 11.0917 103.383 11.0049 103.243 10.9467C103.103 10.8885 102.953 10.8603 102.801 10.8637C102.648 10.8618 102.495 10.8907 102.353 10.9486C102.21 11.0065 102.081 11.0924 101.972 11.2011C101.864 11.3098 101.778 11.4392 101.72 11.5816C101.662 11.724 101.633 11.8765 101.635 12.0302H101.635Z" fill="black"/>
</svg>
