<svg width="86" height="18" viewBox="0 0 86 18" fill="none" xmlns="http://www.w3.org/2000/svg">
<path d="M28.14 4.89055C27.2974 4.89253 26.4744 5.14431 25.7749 5.61405C25.0755 6.08379 24.531 6.75038 24.2104 7.52955C23.8898 8.30872 23.8075 9.16546 23.9738 9.99143C24.1401 10.8174 24.5476 11.5755 25.1448 12.1699C25.742 12.7642 26.502 13.1682 27.3287 13.3306C28.1555 13.4931 29.0118 13.4067 29.7895 13.0824C30.5671 12.7582 31.2311 12.2106 31.6976 11.509C32.164 10.8073 32.412 9.98309 32.41 9.14055C32.4181 8.57848 32.3131 8.02052 32.1012 7.49989C31.8892 6.97926 31.5746 6.5066 31.1762 6.11005C30.7778 5.71351 30.3037 5.40118 29.7821 5.19167C29.2604 4.98216 28.702 4.87976 28.14 4.89055ZM28.14 11.7205C27.6236 11.7567 27.1082 11.6366 26.6609 11.3759C26.2137 11.1153 25.8552 10.7261 25.632 10.259C25.4088 9.79187 25.3314 9.26843 25.4097 8.7567C25.4879 8.24497 25.7184 7.76863 26.0709 7.38959C26.4235 7.01055 26.882 6.74635 27.3867 6.63132C27.8915 6.5163 28.4192 6.55578 28.9012 6.74463C29.3832 6.93348 29.7972 7.26297 30.0895 7.69025C30.3818 8.11754 30.5387 8.62287 30.54 9.14055C30.5561 9.46856 30.5063 9.79648 30.3937 10.105C30.2811 10.4135 30.1078 10.6963 29.8841 10.9367C29.6604 11.1772 29.3909 11.3704 29.0913 11.505C28.7918 11.6397 28.4683 11.7129 28.14 11.7205ZM18.82 4.89055C17.9774 4.89253 17.1544 5.14431 16.4549 5.61405C15.7555 6.08379 15.211 6.75038 14.8904 7.52955C14.5698 8.30872 14.4875 9.16546 14.6538 9.99143C14.8201 10.8174 15.2276 11.5755 15.8248 12.1699C16.422 12.7642 17.182 13.1682 18.0087 13.3306C18.8355 13.4931 19.6918 13.4067 20.4695 13.0824C21.2471 12.7582 21.9111 12.2106 22.3776 11.509C22.844 10.8073 23.0919 9.98309 23.09 9.14055C23.0981 8.57848 22.9931 8.02052 22.7812 7.49989C22.5692 6.97926 22.2546 6.5066 21.8562 6.11005C21.4578 5.71351 20.9837 5.40118 20.4621 5.19167C19.9404 4.98216 19.382 4.87976 18.82 4.89055ZM18.82 11.7205C18.3036 11.7567 17.7882 11.6366 17.3409 11.3759C16.8937 11.1153 16.5352 10.7261 16.312 10.259C16.0888 9.79187 16.0114 9.26843 16.0897 8.7567C16.1679 8.24497 16.3984 7.76863 16.7509 7.38959C17.1035 7.01055 17.562 6.74635 18.0667 6.63132C18.5715 6.5163 19.0992 6.55578 19.5812 6.74463C20.0632 6.93348 20.4772 7.26297 20.7695 7.69025C21.0618 8.11754 21.2187 8.62287 21.22 9.14055C21.2361 9.46856 21.1863 9.79648 21.0737 10.105C20.9611 10.4135 20.7878 10.6963 20.5641 10.9367C20.3404 11.1772 20.0709 11.3704 19.7713 11.505C19.4718 11.6397 19.1483 11.7129 18.82 11.7205ZM7.73998 6.20055V8.00055H12.06C11.9922 8.84835 11.6398 9.64834 11.06 10.2705C10.6266 10.7121 10.1054 11.0577 9.53009 11.2851C8.95474 11.5124 8.33808 11.6165 7.71998 11.5905C6.44694 11.5905 5.22604 11.0848 4.32586 10.1847C3.42569 9.28449 2.91998 8.06359 2.91998 6.79055C2.91998 5.51751 3.42569 4.29661 4.32586 3.39644C5.22604 2.49626 6.44694 1.99055 7.71998 1.99055C8.94043 1.9724 10.1189 2.43587 11 3.28055L12.27 2.01055C11.674 1.42106 10.9663 0.956438 10.1884 0.64392C9.41057 0.331402 8.57817 0.177268 7.73998 0.190547C6.85098 0.155949 5.96413 0.301175 5.1326 0.617519C4.30106 0.933862 3.54195 1.41482 2.90073 2.03156C2.25952 2.6483 1.74941 3.38814 1.40097 4.20674C1.05253 5.02535 0.872925 5.90587 0.872925 6.79555C0.872925 7.68522 1.05253 8.56574 1.40097 9.38435C1.74941 10.203 2.25952 10.9428 2.90073 11.5595C3.54195 12.1763 4.30106 12.6572 5.1326 12.9736C5.96413 13.2899 6.85098 13.4351 7.73998 13.4005C8.5954 13.4347 9.44837 13.2875 10.2429 12.9687C11.0374 12.6499 11.7555 12.1666 12.35 11.5505C13.4001 10.397 13.9596 8.87973 13.91 7.32055C13.9136 6.94527 13.8834 6.57044 13.82 6.20055H7.73998ZM53.05 7.60055C52.7892 6.83328 52.3015 6.16333 51.6515 5.6794C51.0015 5.19546 50.2198 4.92037 49.41 4.89055C48.863 4.88948 48.3216 5.00061 47.8192 5.21708C47.3169 5.43355 46.8643 5.75075 46.4894 6.14908C46.1145 6.54741 45.8252 7.0184 45.6396 7.53293C45.4539 8.04747 45.3758 8.59461 45.41 9.14055C45.4014 10.0534 45.6884 10.9445 46.2281 11.6808C46.7678 12.4171 47.5312 12.959 48.4042 13.2257C49.2773 13.4923 50.2132 13.4694 51.0722 13.1603C51.9311 12.8511 52.667 12.2724 53.17 11.5105L51.72 10.5105C51.5038 10.8708 51.1972 11.1683 50.8306 11.3736C50.464 11.5788 50.0501 11.6846 49.63 11.6805C49.1965 11.6984 48.7678 11.5848 48.4002 11.3546C48.0325 11.1243 47.7431 10.7883 47.57 10.3905L53.26 8.04055L53.05 7.60055ZM47.25 9.02055C47.2297 8.70993 47.2716 8.39839 47.3733 8.10416C47.4749 7.80994 47.6342 7.53895 47.8419 7.30707C48.0495 7.07519 48.3014 6.88707 48.5827 6.75373C48.8639 6.6204 49.169 6.54452 49.48 6.53055C49.8022 6.51088 50.123 6.58674 50.4023 6.74861C50.6816 6.91049 50.9069 7.15119 51.05 7.44055L47.25 9.02055ZM42.63 13.1405H44.5V0.640548H42.63V13.1405ZM39.57 5.84055H39.5C39.2206 5.52241 38.8759 5.26835 38.4893 5.09576C38.1027 4.92317 37.6833 4.83611 37.26 4.84055C36.1672 4.89354 35.1366 5.36497 34.382 6.15713C33.6273 6.94929 33.2063 8.00145 33.2063 9.09555C33.2063 10.1897 33.6273 11.2418 34.382 12.034C35.1366 12.8261 36.1672 13.2976 37.26 13.3505C37.6839 13.3591 38.1046 13.2738 38.4918 13.101C38.879 12.9281 39.2233 12.6719 39.5 12.3505H39.57V12.9605C39.57 14.5905 38.7 15.4605 37.3 15.4605C36.8323 15.4503 36.3782 15.3012 35.9954 15.0324C35.6126 14.7635 35.3183 14.387 35.15 13.9505L33.53 14.6205C33.8295 15.3728 34.3502 16.0164 35.0234 16.4664C35.6965 16.9163 36.4904 17.1514 37.3 17.1405C39.49 17.1405 41.3 15.8505 41.3 12.7105V5.14055H39.57V5.84055ZM37.42 11.7205C36.7648 11.6797 36.1498 11.3906 35.7003 10.9122C35.2508 10.4338 35.0005 9.80202 35.0005 9.14555C35.0005 8.48908 35.2508 7.8573 35.7003 7.37889C36.1498 6.90047 36.7648 6.6114 37.42 6.57055C37.7402 6.58437 38.0544 6.66246 38.3438 6.80019C38.6333 6.93791 38.8921 7.13245 39.1048 7.37222C39.3175 7.612 39.4798 7.89212 39.5821 8.19591C39.6843 8.49969 39.7244 8.82095 39.7 9.14055C39.7273 9.46124 39.6892 9.78413 39.5881 10.0897C39.4871 10.3953 39.3251 10.6772 39.1119 10.9183C38.8988 11.1595 38.639 11.3549 38.3482 11.4928C38.0574 11.6307 37.7416 11.7082 37.42 11.7205ZM61.81 0.640548H57.33V13.1405H59.2V8.40055H61.81C62.3429 8.43883 62.8781 8.36692 63.382 8.18928C63.8859 8.01163 64.3479 7.73208 64.739 7.36804C65.1301 7.004 65.4421 6.56329 65.6553 6.07338C65.8686 5.58347 65.9787 5.05487 65.9787 4.52055C65.9787 3.98622 65.8686 3.45762 65.6553 2.96772C65.4421 2.47781 65.1301 2.03709 64.739 1.67305C64.3479 1.30902 63.8859 1.02946 63.382 0.851821C62.8781 0.674179 62.3429 0.602259 61.81 0.640548ZM61.81 6.64055H59.2V2.38055H61.85C62.131 2.38055 62.4093 2.4359 62.6689 2.54344C62.9286 2.65099 63.1645 2.80862 63.3632 3.00734C63.5619 3.20606 63.7195 3.44197 63.8271 3.70161C63.9346 3.96124 63.99 4.23952 63.99 4.52055C63.99 4.80158 63.9346 5.07985 63.8271 5.33949C63.7195 5.59913 63.5619 5.83504 63.3632 6.03376C63.1645 6.23247 62.9286 6.3901 62.6689 6.49765C62.4093 6.60519 62.131 6.66055 61.85 6.66055L61.81 6.64055ZM73.35 4.85055C72.669 4.80856 71.9906 4.9671 71.3988 5.30656C70.8069 5.64603 70.3276 6.15153 70.02 6.76055L71.67 7.45055C71.8367 7.14995 72.0869 6.90406 72.3904 6.74258C72.6938 6.58109 73.0375 6.51092 73.38 6.54055C73.6174 6.51282 73.8579 6.53265 74.0875 6.59887C74.3172 6.6651 74.5313 6.77639 74.7175 6.92626C74.9037 7.07613 75.0581 7.26157 75.1719 7.47177C75.2856 7.68197 75.3564 7.91272 75.38 8.15055V8.27055C74.7786 7.95447 74.1093 7.78971 73.43 7.79055C71.65 7.79055 69.83 8.79055 69.83 10.6105C69.8476 10.9974 69.9427 11.3768 70.1098 11.7261C70.2769 12.0754 70.5125 12.3876 70.8026 12.6442C71.0927 12.9007 71.4314 13.0963 71.7986 13.2193C72.1657 13.3424 72.5539 13.3904 72.94 13.3605C73.4092 13.3865 73.8769 13.2872 74.2952 13.0728C74.7134 12.8584 75.0671 12.5367 75.32 12.1405H75.38V13.1405H77.18V8.33055C77.18 6.14055 75.52 4.87055 73.39 4.87055L73.35 4.85055ZM73.12 11.7005C72.51 11.7005 71.66 11.3905 71.66 10.6405C71.66 9.64055 72.72 9.30055 73.66 9.30055C74.254 9.28589 74.8411 9.43094 75.36 9.72055C75.2972 10.2636 75.0397 10.7655 74.6352 11.1333C74.2307 11.501 73.7066 11.7097 73.16 11.7205L73.12 11.7005ZM83.74 5.14055L81.6 10.5605H81.54L79.32 5.14055H77.32L80.65 12.7205L78.75 16.9305H80.7L85.82 5.14055H83.74ZM66.94 13.1405H68.8V0.640548H66.94V13.1405Z" fill="white"/>
</svg>
