<svg width="135" height="41" viewBox="0 0 135 41" fill="none" xmlns="http://www.w3.org/2000/svg">
<path d="M130 0.940625C131.114 0.940625 132.182 1.38312 132.97 2.17078C133.758 2.95843 134.2 4.02672 134.2 5.14062V35.1406C134.2 36.2545 133.758 37.3228 132.97 38.1105C132.182 38.8981 131.114 39.3406 130 39.3406H5C3.88609 39.3406 2.8178 38.8981 2.03015 38.1105C1.2425 37.3228 0.8 36.2545 0.8 35.1406V5.14062C0.8 4.02672 1.2425 2.95843 2.03015 2.17078C2.8178 1.38312 3.88609 0.940625 5 0.940625H130ZM130 0.140625H5C3.67392 0.140625 2.40215 0.667409 1.46447 1.60509C0.526784 2.54277 0 3.81454 0 5.14062V35.1406C0 36.4667 0.526784 37.7385 1.46447 38.6762C2.40215 39.6138 3.67392 40.1406 5 40.1406H130C131.326 40.1406 132.598 39.6138 133.536 38.6762C134.473 37.7385 135 36.4667 135 35.1406V5.14062C135 3.81454 134.473 2.54277 133.536 1.60509C132.598 0.667409 131.326 0.140625 130 0.140625Z" fill="#A6A6A6"/>
</svg>
